<mxfile host="app.diagrams.net" modified="2020-10-28T07:43:44.509Z" agent="5.0 (Macintosh; Intel Mac OS X 10_15_5) AppleWebKit/537.36 (KHTML, like Gecko) Chrome/86.0.4240.111 Safari/537.36" etag="Zzz39OhFleZwgXZLYugg" version="13.8.5" type="github" pages="2">
  <diagram name="Page-1" id="2a216829-ef6e-dabb-86c1-c78162f3ba2b">
    <mxGraphModel dx="1186" dy="614" grid="1" gridSize="10" guides="1" tooltips="1" connect="1" arrows="1" fold="1" page="1" pageScale="1" pageWidth="850" pageHeight="1100" background="#ffffff" math="0" shadow="0">
      <root>
        <mxCell id="0" />
        <mxCell id="1" parent="0" />
        <mxCell id="7a84cebc1def654-1" value="" style="shape=mxgraph.bpmn.shape;html=1;verticalLabelPosition=bottom;labelBackgroundColor=#ffffff;verticalAlign=top;perimeter=ellipsePerimeter;outline=standard;symbol=general;" parent="1" vertex="1">
          <mxGeometry x="260" y="265" width="50" height="50" as="geometry" />
        </mxCell>
        <mxCell id="7a84cebc1def654-2" value="Task" style="shape=ext;rounded=1;html=1;whiteSpace=wrap;" parent="1" vertex="1">
          <mxGeometry x="360" y="250" width="120" height="80" as="geometry" />
        </mxCell>
        <mxCell id="7a84cebc1def654-3" value="Task" style="shape=ext;rounded=1;html=1;whiteSpace=wrap;" parent="1" vertex="1">
          <mxGeometry x="530" y="250" width="120" height="80" as="geometry" />
        </mxCell>
        <mxCell id="7a84cebc1def654-4" value="" style="shape=message;whiteSpace=wrap;html=1;" parent="1" vertex="1">
          <mxGeometry x="400" y="175" width="40" height="30" as="geometry" />
        </mxCell>
        <mxCell id="7a84cebc1def654-5" value="" style="shape=message;whiteSpace=wrap;html=1;" parent="1" vertex="1">
          <mxGeometry x="570" y="175" width="40" height="30" as="geometry" />
        </mxCell>
        <mxCell id="7a84cebc1def654-6" value="" style="shape=hexagon;whiteSpace=wrap;html=1;perimeter=hexagonPerimeter;" parent="1" vertex="1">
          <mxGeometry x="560" y="375" width="60" height="50" as="geometry" />
        </mxCell>
        <mxCell id="7a84cebc1def654-7" value="" style="html=1;shape=plus;" parent="7a84cebc1def654-6" vertex="1">
          <mxGeometry x="0.5" y="1" width="14" height="14" relative="1" as="geometry">
            <mxPoint x="-7" y="-14" as="offset" />
          </mxGeometry>
        </mxCell>
        <mxCell id="7a84cebc1def654-8" value="Task" style="shape=ext;rounded=1;html=1;whiteSpace=wrap;" parent="1" vertex="1">
          <mxGeometry x="530" y="475" width="120" height="80" as="geometry" />
        </mxCell>
        <mxCell id="7a84cebc1def654-9" value="" style="shape=mxgraph.bpmn.shape;html=1;verticalLabelPosition=bottom;labelBackgroundColor=#ffffff;verticalAlign=top;perimeter=rhombusPerimeter;background=gateway;outline=none;symbol=parallelGw;" parent="1" vertex="1">
          <mxGeometry x="695" y="490" width="50" height="50" as="geometry" />
        </mxCell>
        <mxCell id="7a84cebc1def654-12" value="Sub-Process" style="html=1;whiteSpace=wrap;rounded=1;" parent="1" vertex="1">
          <mxGeometry x="970" y="250" width="120" height="80" as="geometry" />
        </mxCell>
        <mxCell id="7a84cebc1def654-13" value="" style="html=1;shape=plus;" parent="7a84cebc1def654-12" vertex="1">
          <mxGeometry x="0.5" y="1" width="14" height="14" relative="1" as="geometry">
            <mxPoint x="-7" y="-14" as="offset" />
          </mxGeometry>
        </mxCell>
        <mxCell id="7a84cebc1def654-14" value="Receive" style="html=1;whiteSpace=wrap;rounded=1;" parent="1" vertex="1">
          <mxGeometry x="780" y="250" width="120" height="80" as="geometry" />
        </mxCell>
        <mxCell id="7a84cebc1def654-15" value="" style="html=1;shape=message;" parent="7a84cebc1def654-14" vertex="1">
          <mxGeometry width="20" height="14" relative="1" as="geometry">
            <mxPoint x="7" y="7" as="offset" />
          </mxGeometry>
        </mxCell>
        <mxCell id="7a84cebc1def654-16" value="Process" style="html=1;whiteSpace=wrap;rounded=1;" parent="1" vertex="1">
          <mxGeometry x="905" y="475" width="120" height="80" as="geometry" />
        </mxCell>
        <mxCell id="7a84cebc1def654-17" value="" style="shape=mxgraph.bpmn.timer_start;perimeter=ellipsePerimeter;html=1;labelPosition=right;labelBackgroundColor=#ffffff;align=left;" parent="7a84cebc1def654-16" vertex="1">
          <mxGeometry x="1" width="30" height="30" relative="1" as="geometry">
            <mxPoint x="-15" y="10" as="offset" />
          </mxGeometry>
        </mxCell>
        <mxCell id="7a84cebc1def654-18" value="Process" style="html=1;whiteSpace=wrap;rounded=1;" parent="1" vertex="1">
          <mxGeometry x="1220" y="775" width="120" height="80" as="geometry" />
        </mxCell>
        <mxCell id="7a84cebc1def654-19" value="" style="shape=mxgraph.bpmn.timer_start;perimeter=ellipsePerimeter;html=1;labelPosition=right;labelBackgroundColor=#ffffff;align=left;" parent="7a84cebc1def654-18" vertex="1">
          <mxGeometry x="1" width="30" height="30" relative="1" as="geometry">
            <mxPoint x="-15" y="10" as="offset" />
          </mxGeometry>
        </mxCell>
        <mxCell id="7a84cebc1def654-20" value="Receive" style="html=1;whiteSpace=wrap;rounded=1;" parent="1" vertex="1">
          <mxGeometry x="1050" y="775" width="120" height="80" as="geometry" />
        </mxCell>
        <mxCell id="7a84cebc1def654-21" value="" style="html=1;shape=message;" parent="7a84cebc1def654-20" vertex="1">
          <mxGeometry width="20" height="14" relative="1" as="geometry">
            <mxPoint x="7" y="7" as="offset" />
          </mxGeometry>
        </mxCell>
        <mxCell id="7a84cebc1def654-22" value="Sub-Process" style="html=1;whiteSpace=wrap;rounded=1;" parent="1" vertex="1">
          <mxGeometry x="905" y="775" width="120" height="80" as="geometry" />
        </mxCell>
        <mxCell id="7a84cebc1def654-23" value="" style="html=1;shape=plus;" parent="7a84cebc1def654-22" vertex="1">
          <mxGeometry x="0.5" y="1" width="14" height="14" relative="1" as="geometry">
            <mxPoint x="-7" y="-14" as="offset" />
          </mxGeometry>
        </mxCell>
        <mxCell id="7a84cebc1def654-24" value="" style="shape=mxgraph.bpmn.shape;html=1;verticalLabelPosition=bottom;labelBackgroundColor=#ffffff;verticalAlign=top;perimeter=rhombusPerimeter;background=gateway;outline=none;symbol=parallelGw;" parent="1" vertex="1">
          <mxGeometry x="1255" y="490" width="50" height="50" as="geometry" />
        </mxCell>
        <mxCell id="7a84cebc1def654-26" value="" style="shape=mxgraph.bpmn.shape;html=1;verticalLabelPosition=bottom;labelBackgroundColor=#ffffff;verticalAlign=top;perimeter=ellipsePerimeter;outline=end;symbol=general;" parent="1" vertex="1">
          <mxGeometry x="1390" y="490.00000000000006" width="50" height="50" as="geometry" />
        </mxCell>
        <mxCell id="7a84cebc1def654-27" value="" style="shape=message;whiteSpace=wrap;html=1;" parent="1" vertex="1">
          <mxGeometry x="820" y="175" width="40" height="30" as="geometry" />
        </mxCell>
        <mxCell id="7a84cebc1def654-28" value="" style="shape=message;whiteSpace=wrap;html=1;" parent="1" vertex="1">
          <mxGeometry x="1010" y="175" width="40" height="30" as="geometry" />
        </mxCell>
        <mxCell id="7a84cebc1def654-29" value="Sub-Process" style="html=1;whiteSpace=wrap;rounded=1;" parent="1" vertex="1">
          <mxGeometry x="660" y="655" width="120" height="80" as="geometry" />
        </mxCell>
        <mxCell id="7a84cebc1def654-30" value="" style="html=1;shape=plus;" parent="7a84cebc1def654-29" vertex="1">
          <mxGeometry x="0.5" y="1" width="14" height="14" relative="1" as="geometry">
            <mxPoint x="-7" y="-14" as="offset" />
          </mxGeometry>
        </mxCell>
        <mxCell id="7a84cebc1def654-31" value="" style="shape=message;whiteSpace=wrap;html=1;" parent="1" vertex="1">
          <mxGeometry x="700" y="775" width="40" height="30" as="geometry" />
        </mxCell>
        <mxCell id="7a84cebc1def654-32" value="" style="shape=message;whiteSpace=wrap;html=1;" parent="1" vertex="1">
          <mxGeometry x="1090" y="895" width="40" height="30" as="geometry" />
        </mxCell>
        <mxCell id="7a84cebc1def654-33" value="" style="shape=message;whiteSpace=wrap;html=1;" parent="1" vertex="1">
          <mxGeometry x="1260" y="895" width="40" height="30" as="geometry" />
        </mxCell>
        <mxCell id="7a84cebc1def654-34" value="" style="shape=message;whiteSpace=wrap;html=1;" parent="1" vertex="1">
          <mxGeometry x="945" y="895" width="40" height="30" as="geometry" />
        </mxCell>
        <mxCell id="7a84cebc1def654-35" value="" style="shape=message;whiteSpace=wrap;html=1;" parent="1" vertex="1">
          <mxGeometry x="945" y="595" width="40" height="30" as="geometry" />
        </mxCell>
        <mxCell id="7a84cebc1def654-36" style="edgeStyle=orthogonalEdgeStyle;rounded=0;html=1;jettySize=auto;orthogonalLoop=1;" parent="1" source="7a84cebc1def654-1" target="7a84cebc1def654-2" edge="1">
          <mxGeometry relative="1" as="geometry" />
        </mxCell>
        <mxCell id="7a84cebc1def654-37" style="edgeStyle=orthogonalEdgeStyle;rounded=0;html=1;jettySize=auto;orthogonalLoop=1;endArrow=none;endFill=0;" parent="1" source="7a84cebc1def654-4" target="7a84cebc1def654-2" edge="1">
          <mxGeometry relative="1" as="geometry" />
        </mxCell>
        <mxCell id="7a84cebc1def654-38" style="edgeStyle=orthogonalEdgeStyle;rounded=0;html=1;jettySize=auto;orthogonalLoop=1;endArrow=none;endFill=0;" parent="1" source="7a84cebc1def654-5" target="7a84cebc1def654-3" edge="1">
          <mxGeometry relative="1" as="geometry" />
        </mxCell>
        <mxCell id="7a84cebc1def654-39" style="edgeStyle=orthogonalEdgeStyle;rounded=0;html=1;jettySize=auto;orthogonalLoop=1;" parent="1" source="7a84cebc1def654-2" target="7a84cebc1def654-3" edge="1">
          <mxGeometry relative="1" as="geometry" />
        </mxCell>
        <mxCell id="7a84cebc1def654-40" style="edgeStyle=orthogonalEdgeStyle;rounded=0;html=1;jettySize=auto;orthogonalLoop=1;" parent="1" source="7a84cebc1def654-14" target="7a84cebc1def654-12" edge="1">
          <mxGeometry relative="1" as="geometry" />
        </mxCell>
        <mxCell id="7a84cebc1def654-41" style="edgeStyle=orthogonalEdgeStyle;rounded=0;html=1;jettySize=auto;orthogonalLoop=1;endArrow=none;endFill=0;" parent="1" source="7a84cebc1def654-27" target="7a84cebc1def654-14" edge="1">
          <mxGeometry relative="1" as="geometry" />
        </mxCell>
        <mxCell id="7a84cebc1def654-42" style="edgeStyle=orthogonalEdgeStyle;rounded=0;html=1;jettySize=auto;orthogonalLoop=1;endArrow=none;endFill=0;" parent="1" source="7a84cebc1def654-28" target="7a84cebc1def654-12" edge="1">
          <mxGeometry relative="1" as="geometry" />
        </mxCell>
        <mxCell id="7a84cebc1def654-43" style="edgeStyle=orthogonalEdgeStyle;rounded=0;html=1;jettySize=auto;orthogonalLoop=1;" parent="1" source="7a84cebc1def654-12" target="7a84cebc1def654-24" edge="1">
          <mxGeometry relative="1" as="geometry">
            <mxPoint x="1289.9999999999995" y="475" as="targetPoint" />
            <Array as="points">
              <mxPoint x="1280" y="290" />
            </Array>
          </mxGeometry>
        </mxCell>
        <mxCell id="7a84cebc1def654-44" style="edgeStyle=orthogonalEdgeStyle;rounded=0;html=1;jettySize=auto;orthogonalLoop=1;" parent="1" source="7a84cebc1def654-16" target="7a84cebc1def654-24" edge="1">
          <mxGeometry relative="1" as="geometry" />
        </mxCell>
        <mxCell id="7a84cebc1def654-45" style="edgeStyle=orthogonalEdgeStyle;rounded=0;html=1;jettySize=auto;orthogonalLoop=1;" parent="1" source="7a84cebc1def654-18" target="7a84cebc1def654-24" edge="1">
          <mxGeometry relative="1" as="geometry" />
        </mxCell>
        <mxCell id="7a84cebc1def654-46" style="edgeStyle=orthogonalEdgeStyle;rounded=0;html=1;jettySize=auto;orthogonalLoop=1;" parent="1" source="7a84cebc1def654-24" target="7a84cebc1def654-26" edge="1">
          <mxGeometry relative="1" as="geometry" />
        </mxCell>
        <mxCell id="7a84cebc1def654-47" style="edgeStyle=orthogonalEdgeStyle;rounded=0;html=1;jettySize=auto;orthogonalLoop=1;" parent="1" source="7a84cebc1def654-3" target="7a84cebc1def654-6" edge="1">
          <mxGeometry relative="1" as="geometry" />
        </mxCell>
        <mxCell id="7a84cebc1def654-48" style="edgeStyle=orthogonalEdgeStyle;rounded=0;html=1;jettySize=auto;orthogonalLoop=1;" parent="1" source="7a84cebc1def654-6" target="7a84cebc1def654-8" edge="1">
          <mxGeometry relative="1" as="geometry" />
        </mxCell>
        <mxCell id="7a84cebc1def654-49" style="edgeStyle=orthogonalEdgeStyle;rounded=0;html=1;jettySize=auto;orthogonalLoop=1;" parent="1" source="7a84cebc1def654-8" target="7a84cebc1def654-9" edge="1">
          <mxGeometry relative="1" as="geometry" />
        </mxCell>
        <mxCell id="7a84cebc1def654-50" style="edgeStyle=orthogonalEdgeStyle;rounded=0;html=1;jettySize=auto;orthogonalLoop=1;" parent="1" source="7a84cebc1def654-9" target="7a84cebc1def654-14" edge="1">
          <mxGeometry relative="1" as="geometry">
            <Array as="points">
              <mxPoint x="720" y="290" />
            </Array>
          </mxGeometry>
        </mxCell>
        <mxCell id="7a84cebc1def654-51" style="edgeStyle=orthogonalEdgeStyle;rounded=0;html=1;jettySize=auto;orthogonalLoop=1;" parent="1" source="7a84cebc1def654-9" target="7a84cebc1def654-29" edge="1">
          <mxGeometry relative="1" as="geometry" />
        </mxCell>
        <mxCell id="7a84cebc1def654-52" style="edgeStyle=orthogonalEdgeStyle;rounded=0;html=1;jettySize=auto;orthogonalLoop=1;endArrow=none;endFill=0;" parent="1" source="7a84cebc1def654-31" target="7a84cebc1def654-29" edge="1">
          <mxGeometry relative="1" as="geometry" />
        </mxCell>
        <mxCell id="7a84cebc1def654-53" value="" style="shape=mxgraph.bpmn.shape;html=1;verticalLabelPosition=bottom;labelBackgroundColor=#ffffff;verticalAlign=top;perimeter=rhombusPerimeter;background=gateway;outline=none;symbol=parallelGw;" parent="1" vertex="1">
          <mxGeometry x="830" y="670" width="50" height="50" as="geometry" />
        </mxCell>
        <mxCell id="7a84cebc1def654-54" style="edgeStyle=orthogonalEdgeStyle;rounded=0;html=1;jettySize=auto;orthogonalLoop=1;" parent="1" source="7a84cebc1def654-53" target="7a84cebc1def654-22" edge="1">
          <mxGeometry relative="1" as="geometry">
            <Array as="points">
              <mxPoint x="855" y="815" />
            </Array>
          </mxGeometry>
        </mxCell>
        <mxCell id="7a84cebc1def654-55" style="edgeStyle=orthogonalEdgeStyle;rounded=0;html=1;jettySize=auto;orthogonalLoop=1;" parent="1" source="7a84cebc1def654-53" target="7a84cebc1def654-16" edge="1">
          <mxGeometry relative="1" as="geometry">
            <Array as="points">
              <mxPoint x="855" y="515" />
            </Array>
          </mxGeometry>
        </mxCell>
        <mxCell id="7a84cebc1def654-56" style="edgeStyle=orthogonalEdgeStyle;rounded=0;html=1;jettySize=auto;orthogonalLoop=1;endArrow=none;endFill=0;" parent="1" source="7a84cebc1def654-35" target="7a84cebc1def654-16" edge="1">
          <mxGeometry relative="1" as="geometry" />
        </mxCell>
        <mxCell id="7a84cebc1def654-58" style="edgeStyle=orthogonalEdgeStyle;rounded=0;html=1;jettySize=auto;orthogonalLoop=1;" parent="1" source="7a84cebc1def654-29" target="7a84cebc1def654-53" edge="1">
          <mxGeometry relative="1" as="geometry" />
        </mxCell>
        <mxCell id="7a84cebc1def654-59" style="edgeStyle=orthogonalEdgeStyle;rounded=0;html=1;jettySize=auto;orthogonalLoop=1;" parent="1" source="7a84cebc1def654-22" target="7a84cebc1def654-20" edge="1">
          <mxGeometry relative="1" as="geometry" />
        </mxCell>
        <mxCell id="7a84cebc1def654-60" style="edgeStyle=orthogonalEdgeStyle;rounded=0;html=1;jettySize=auto;orthogonalLoop=1;endArrow=none;endFill=0;" parent="1" source="7a84cebc1def654-34" target="7a84cebc1def654-22" edge="1">
          <mxGeometry relative="1" as="geometry" />
        </mxCell>
        <mxCell id="7a84cebc1def654-61" style="edgeStyle=orthogonalEdgeStyle;rounded=0;html=1;jettySize=auto;orthogonalLoop=1;endArrow=none;endFill=0;" parent="1" source="7a84cebc1def654-32" target="7a84cebc1def654-20" edge="1">
          <mxGeometry relative="1" as="geometry" />
        </mxCell>
        <mxCell id="7a84cebc1def654-63" style="edgeStyle=orthogonalEdgeStyle;rounded=0;html=1;jettySize=auto;orthogonalLoop=1;endArrow=none;endFill=0;" parent="1" source="7a84cebc1def654-33" target="7a84cebc1def654-18" edge="1">
          <mxGeometry relative="1" as="geometry" />
        </mxCell>
        <mxCell id="7a84cebc1def654-64" style="edgeStyle=orthogonalEdgeStyle;rounded=0;html=1;jettySize=auto;orthogonalLoop=1;" parent="1" source="7a84cebc1def654-20" target="7a84cebc1def654-18" edge="1">
          <mxGeometry relative="1" as="geometry" />
        </mxCell>
      </root>
    </mxGraphModel>
  </diagram>
  <diagram id="4938J5MmcxvS2YLc5Ug3" name="Page-2">
    <mxGraphModel dx="1186" dy="1714" grid="1" gridSize="10" guides="1" tooltips="1" connect="1" arrows="1" fold="1" page="1" pageScale="1" pageWidth="850" pageHeight="1100" math="0" shadow="0">
      <root>
        <mxCell id="EHnlT2uJUEPuzApBhRH9-0" />
        <mxCell id="EHnlT2uJUEPuzApBhRH9-1" parent="EHnlT2uJUEPuzApBhRH9-0" />
        <mxCell id="LkJuuqvOOLp8TkuabCVq-0" value="Customer" style="swimlane;html=1;horizontal=0;startSize=20;" parent="EHnlT2uJUEPuzApBhRH9-1" vertex="1">
          <mxGeometry x="30" y="-10" width="2290" height="150" as="geometry" />
        </mxCell>
        <mxCell id="XQ94um0dFA0FO3Zs2JSh-5" value="" style="shape=mxgraph.bpmn.shape;html=1;verticalLabelPosition=bottom;labelBackgroundColor=#ffffff;verticalAlign=top;align=center;perimeter=ellipsePerimeter;outlineConnect=0;outline=standard;symbol=general;" parent="LkJuuqvOOLp8TkuabCVq-0" vertex="1">
          <mxGeometry x="80" y="50" width="40" height="40" as="geometry" />
        </mxCell>
        <mxCell id="XQ94um0dFA0FO3Zs2JSh-6" value="Có nhu cầu đến điểm bán lẻ mua hàng" style="text;html=1;strokeColor=none;fillColor=none;align=center;verticalAlign=middle;whiteSpace=wrap;rounded=0;" parent="LkJuuqvOOLp8TkuabCVq-0" vertex="1">
          <mxGeometry x="37.5" y="100" width="125" height="20" as="geometry" />
        </mxCell>
        <mxCell id="XQ94um0dFA0FO3Zs2JSh-9" value="" style="endArrow=block;endFill=1;endSize=6;html=1;exitX=1;exitY=0.5;exitDx=0;exitDy=0;entryX=0;entryY=0.5;entryDx=0;entryDy=0;" parent="LkJuuqvOOLp8TkuabCVq-0" source="XQ94um0dFA0FO3Zs2JSh-5" target="XQ94um0dFA0FO3Zs2JSh-30" edge="1">
          <mxGeometry width="100" relative="1" as="geometry">
            <mxPoint x="140" y="59" as="sourcePoint" />
            <mxPoint x="170" y="70" as="targetPoint" />
          </mxGeometry>
        </mxCell>
        <mxCell id="XQ94um0dFA0FO3Zs2JSh-10" value="" style="endArrow=block;endFill=1;endSize=6;html=1;exitX=1;exitY=0.5;exitDx=0;exitDy=0;" parent="LkJuuqvOOLp8TkuabCVq-0" source="XQ94um0dFA0FO3Zs2JSh-30" edge="1">
          <mxGeometry width="100" relative="1" as="geometry">
            <mxPoint x="280" y="44.5" as="sourcePoint" />
            <mxPoint x="314" y="70" as="targetPoint" />
          </mxGeometry>
        </mxCell>
        <mxCell id="XQ94um0dFA0FO3Zs2JSh-30" value="Lựa chọn sản phẩm bỏ vào giỏ" style="html=1;whiteSpace=wrap;rounded=1;dropTarget=0;" parent="LkJuuqvOOLp8TkuabCVq-0" vertex="1">
          <mxGeometry x="180" y="30" width="100" height="80" as="geometry" />
        </mxCell>
        <mxCell id="XQ94um0dFA0FO3Zs2JSh-33" value="&lt;span style=&quot;color: rgb(0 , 0 , 0) ; font-family: &amp;#34;helvetica&amp;#34; ; font-size: 12px ; font-style: normal ; font-weight: 400 ; letter-spacing: normal ; text-align: center ; text-indent: 0px ; text-transform: none ; word-spacing: 0px ; background-color: rgb(248 , 249 , 250) ; display: inline ; float: none&quot;&gt;Ra quầy thanh toán (Xếp hàng)&lt;/span&gt;" style="html=1;whiteSpace=wrap;rounded=1;dropTarget=0;" parent="LkJuuqvOOLp8TkuabCVq-0" vertex="1">
          <mxGeometry x="315" y="30" width="115" height="90" as="geometry" />
        </mxCell>
        <mxCell id="XQ94um0dFA0FO3Zs2JSh-82" value="" style="shape=mxgraph.bpmn.manual_task;html=1;outlineConnect=0;" parent="LkJuuqvOOLp8TkuabCVq-0" vertex="1">
          <mxGeometry x="190" y="40" width="14" height="14" as="geometry" />
        </mxCell>
        <mxCell id="XQ94um0dFA0FO3Zs2JSh-83" value="" style="shape=mxgraph.bpmn.manual_task;html=1;outlineConnect=0;" parent="LkJuuqvOOLp8TkuabCVq-0" vertex="1">
          <mxGeometry x="320" y="40" width="14" height="14" as="geometry" />
        </mxCell>
        <mxCell id="SF-a8rdMqauQVfmWhSf8-1" value="" style="shape=mxgraph.bpmn.shape;html=1;verticalLabelPosition=bottom;labelBackgroundColor=#ffffff;verticalAlign=top;align=center;perimeter=ellipsePerimeter;outlineConnect=0;outline=eventInt;symbol=timer;" vertex="1" parent="LkJuuqvOOLp8TkuabCVq-0">
          <mxGeometry x="470" y="50" width="40" height="40" as="geometry" />
        </mxCell>
        <mxCell id="SF-a8rdMqauQVfmWhSf8-2" value="Đợi đến lượt" style="text;html=1;strokeColor=none;fillColor=none;align=center;verticalAlign=middle;whiteSpace=wrap;rounded=0;" vertex="1" parent="LkJuuqvOOLp8TkuabCVq-0">
          <mxGeometry x="450" y="90" width="80" height="20" as="geometry" />
        </mxCell>
        <mxCell id="SF-a8rdMqauQVfmWhSf8-4" value="Yêu cầu thanh toán" style="shape=ext;rounded=1;html=1;whiteSpace=wrap;" vertex="1" parent="LkJuuqvOOLp8TkuabCVq-0">
          <mxGeometry x="550" y="35" width="117.62" height="70" as="geometry" />
        </mxCell>
        <mxCell id="SF-a8rdMqauQVfmWhSf8-5" value="" style="shape=mxgraph.bpmn.manual_task;html=1;outlineConnect=0;" vertex="1" parent="LkJuuqvOOLp8TkuabCVq-0">
          <mxGeometry x="560" y="40" width="14" height="14" as="geometry" />
        </mxCell>
        <mxCell id="SF-a8rdMqauQVfmWhSf8-3" value="" style="endArrow=classic;html=1;exitX=1;exitY=0.5;exitDx=0;exitDy=0;entryX=0;entryY=0.5;entryDx=0;entryDy=0;" edge="1" parent="LkJuuqvOOLp8TkuabCVq-0" source="SF-a8rdMqauQVfmWhSf8-1" target="SF-a8rdMqauQVfmWhSf8-4">
          <mxGeometry width="50" height="50" relative="1" as="geometry">
            <mxPoint x="740" y="290" as="sourcePoint" />
            <mxPoint x="550" y="70" as="targetPoint" />
          </mxGeometry>
        </mxCell>
        <mxCell id="XQ94um0dFA0FO3Zs2JSh-1" value="KPIM Retail Store" style="swimlane;html=1;childLayout=stackLayout;resizeParent=1;resizeParentMax=0;horizontal=0;startSize=20;horizontalStack=0;" parent="EHnlT2uJUEPuzApBhRH9-1" vertex="1">
          <mxGeometry x="30" y="210" width="2290" height="870" as="geometry" />
        </mxCell>
        <mxCell id="XQ94um0dFA0FO3Zs2JSh-3" value="Cashier (Thu Ngân)" style="swimlane;html=1;startSize=20;horizontal=0;" parent="XQ94um0dFA0FO3Zs2JSh-1" vertex="1">
          <mxGeometry x="20" width="2270" height="590" as="geometry" />
        </mxCell>
        <mxCell id="SF-a8rdMqauQVfmWhSf8-1642" value="" style="shape=mxgraph.bpmn.shape;html=1;verticalLabelPosition=bottom;labelBackgroundColor=#ffffff;verticalAlign=top;align=center;perimeter=ellipsePerimeter;outlineConnect=0;outline=catching;symbol=message;" vertex="1" parent="XQ94um0dFA0FO3Zs2JSh-3">
          <mxGeometry x="568.8100000000001" y="75" width="40" height="40" as="geometry" />
        </mxCell>
        <mxCell id="SF-a8rdMqauQVfmWhSf8-1641" value="Tiếp nhận yêu cầu thanh toán" style="text;html=1;strokeColor=none;fillColor=none;align=center;verticalAlign=middle;whiteSpace=wrap;rounded=0;" vertex="1" parent="XQ94um0dFA0FO3Zs2JSh-3">
          <mxGeometry x="546.18" y="125" width="85.25" height="15" as="geometry" />
        </mxCell>
        <mxCell id="XQ94um0dFA0FO3Zs2JSh-4" value="POS System" style="swimlane;html=1;startSize=20;horizontal=0;" parent="XQ94um0dFA0FO3Zs2JSh-1" vertex="1">
          <mxGeometry x="20" y="590" width="2270" height="280" as="geometry" />
        </mxCell>
        <mxCell id="SF-a8rdMqauQVfmWhSf8-0" value="" style="endArrow=classic;html=1;" edge="1" parent="EHnlT2uJUEPuzApBhRH9-1">
          <mxGeometry width="50" height="50" relative="1" as="geometry">
            <mxPoint x="460" y="60" as="sourcePoint" />
            <mxPoint x="500" y="60" as="targetPoint" />
          </mxGeometry>
        </mxCell>
        <mxCell id="SF-a8rdMqauQVfmWhSf8-1639" value="" style="endArrow=block;endFill=1;endSize=6;html=1;exitX=0.5;exitY=1;exitDx=0;exitDy=0;entryX=0.5;entryY=0;entryDx=0;entryDy=0;" edge="1" source="SF-a8rdMqauQVfmWhSf8-1657" target="SF-a8rdMqauQVfmWhSf8-1678" parent="EHnlT2uJUEPuzApBhRH9-1">
          <mxGeometry width="100" relative="1" as="geometry">
            <mxPoint x="780.12" y="240" as="sourcePoint" />
            <mxPoint x="880.12" y="240" as="targetPoint" />
          </mxGeometry>
        </mxCell>
        <mxCell id="SF-a8rdMqauQVfmWhSf8-1640" value="" style="endArrow=block;endFill=1;endSize=6;html=1;exitX=0.5;exitY=1;exitDx=0;exitDy=0;entryX=0.5;entryY=0;entryDx=0;entryDy=0;" edge="1" source="SF-a8rdMqauQVfmWhSf8-1646" target="SF-a8rdMqauQVfmWhSf8-1682" parent="EHnlT2uJUEPuzApBhRH9-1">
          <mxGeometry width="100" relative="1" as="geometry">
            <mxPoint x="780.12" y="240" as="sourcePoint" />
            <mxPoint x="950.12" y="430" as="targetPoint" />
          </mxGeometry>
        </mxCell>
        <mxCell id="SF-a8rdMqauQVfmWhSf8-1643" style="edgeStyle=orthogonalEdgeStyle;rounded=0;orthogonalLoop=1;jettySize=auto;html=1;exitX=0.5;exitY=1;exitDx=0;exitDy=0;" edge="1" parent="EHnlT2uJUEPuzApBhRH9-1">
          <mxGeometry relative="1" as="geometry">
            <mxPoint x="735.12" y="313.75" as="sourcePoint" />
            <mxPoint x="735.12" y="313.75" as="targetPoint" />
          </mxGeometry>
        </mxCell>
        <mxCell id="SF-a8rdMqauQVfmWhSf8-1644" value="Đã đăng nhập vào hệ thống POS chưa?" style="text;html=1;strokeColor=none;fillColor=none;align=center;verticalAlign=middle;whiteSpace=wrap;rounded=0;" vertex="1" parent="EHnlT2uJUEPuzApBhRH9-1">
          <mxGeometry x="670.13" y="250" width="132.5" height="20" as="geometry" />
        </mxCell>
        <mxCell id="SF-a8rdMqauQVfmWhSf8-1645" value="No" style="text;html=1;align=center;verticalAlign=middle;resizable=0;points=[];autosize=1;" vertex="1" parent="EHnlT2uJUEPuzApBhRH9-1">
          <mxGeometry x="731.38" y="335" width="30" height="20" as="geometry" />
        </mxCell>
        <mxCell id="SF-a8rdMqauQVfmWhSf8-1646" value="Khởi tạo một đơn hàng mới&amp;nbsp;" style="html=1;whiteSpace=wrap;rounded=1;dropTarget=0;" vertex="1" parent="EHnlT2uJUEPuzApBhRH9-1">
          <mxGeometry x="1415.12" y="230" width="135" height="105" as="geometry" />
        </mxCell>
        <mxCell id="SF-a8rdMqauQVfmWhSf8-1647" value="" style="html=1;shape=mxgraph.bpmn.user_task;outlineConnect=0;" vertex="1" parent="SF-a8rdMqauQVfmWhSf8-1646">
          <mxGeometry width="14" height="14" relative="1" as="geometry">
            <mxPoint x="7" y="7" as="offset" />
          </mxGeometry>
        </mxCell>
        <mxCell id="SF-a8rdMqauQVfmWhSf8-1648" value="" style="html=1;shape=plus;outlineConnect=0;" vertex="1" parent="SF-a8rdMqauQVfmWhSf8-1646">
          <mxGeometry x="0.5" y="1" width="14" height="14" relative="1" as="geometry">
            <mxPoint x="-7" y="-14" as="offset" />
          </mxGeometry>
        </mxCell>
        <mxCell id="SF-a8rdMqauQVfmWhSf8-1649" value="" style="endArrow=block;endFill=1;endSize=6;html=1;exitX=1;exitY=0.5;exitDx=0;exitDy=0;entryX=-0.008;entryY=0.695;entryDx=0;entryDy=0;entryPerimeter=0;" edge="1" source="SF-a8rdMqauQVfmWhSf8-1655" target="SF-a8rdMqauQVfmWhSf8-1646" parent="EHnlT2uJUEPuzApBhRH9-1">
          <mxGeometry width="100" relative="1" as="geometry">
            <mxPoint x="710.12" y="80" as="sourcePoint" />
            <mxPoint x="1360.12" y="90" as="targetPoint" />
          </mxGeometry>
        </mxCell>
        <mxCell id="SF-a8rdMqauQVfmWhSf8-1650" value="" style="shape=mxgraph.bpmn.shape;html=1;verticalLabelPosition=bottom;labelBackgroundColor=#ffffff;verticalAlign=top;align=center;perimeter=ellipsePerimeter;outlineConnect=0;outline=catching;symbol=link;" vertex="1" parent="EHnlT2uJUEPuzApBhRH9-1">
          <mxGeometry x="1330.12" y="240" width="40" height="40" as="geometry" />
        </mxCell>
        <mxCell id="SF-a8rdMqauQVfmWhSf8-1651" value="" style="endArrow=block;endFill=1;endSize=6;html=1;exitX=1;exitY=0.5;exitDx=0;exitDy=0;" edge="1" source="SF-a8rdMqauQVfmWhSf8-1650" parent="EHnlT2uJUEPuzApBhRH9-1">
          <mxGeometry width="100" relative="1" as="geometry">
            <mxPoint x="810.12" y="50" as="sourcePoint" />
            <mxPoint x="1414.12" y="260" as="targetPoint" />
          </mxGeometry>
        </mxCell>
        <mxCell id="SF-a8rdMqauQVfmWhSf8-1652" value="" style="endArrow=block;endFill=1;endSize=6;html=1;exitX=1;exitY=0.5;exitDx=0;exitDy=0;entryX=0;entryY=0.5;entryDx=0;entryDy=0;" edge="1" source="SF-a8rdMqauQVfmWhSf8-1642" target="SF-a8rdMqauQVfmWhSf8-1655" parent="EHnlT2uJUEPuzApBhRH9-1">
          <mxGeometry width="100" relative="1" as="geometry">
            <mxPoint x="617.62" y="75" as="sourcePoint" />
            <mxPoint x="660.12" y="80" as="targetPoint" />
          </mxGeometry>
        </mxCell>
        <mxCell id="SF-a8rdMqauQVfmWhSf8-1653" value="Yes" style="text;html=1;align=center;verticalAlign=middle;resizable=0;points=[];autosize=1;" vertex="1" parent="EHnlT2uJUEPuzApBhRH9-1">
          <mxGeometry x="761.38" y="285" width="40" height="20" as="geometry" />
        </mxCell>
        <mxCell id="SF-a8rdMqauQVfmWhSf8-1654" value="" style="endArrow=block;endFill=1;endSize=6;html=1;entryX=0.5;entryY=0;entryDx=0;entryDy=0;exitX=0.5;exitY=1;exitDx=0;exitDy=0;" edge="1" source="SF-a8rdMqauQVfmWhSf8-1655" target="SF-a8rdMqauQVfmWhSf8-1657" parent="EHnlT2uJUEPuzApBhRH9-1">
          <mxGeometry width="100" relative="1" as="geometry">
            <mxPoint x="686.12" y="140" as="sourcePoint" />
            <mxPoint x="685.12" y="140" as="targetPoint" />
          </mxGeometry>
        </mxCell>
        <mxCell id="SF-a8rdMqauQVfmWhSf8-1655" value="" style="shape=mxgraph.bpmn.shape;html=1;verticalLabelPosition=bottom;labelBackgroundColor=#ffffff;verticalAlign=top;align=center;perimeter=rhombusPerimeter;background=gateway;outlineConnect=0;outline=catching;symbol=multiple;" vertex="1" parent="EHnlT2uJUEPuzApBhRH9-1">
          <mxGeometry x="711.38" y="280" width="50" height="50" as="geometry" />
        </mxCell>
        <mxCell id="SF-a8rdMqauQVfmWhSf8-1656" value="A" style="text;html=1;align=center;verticalAlign=middle;resizable=0;points=[];autosize=1;" vertex="1" parent="EHnlT2uJUEPuzApBhRH9-1">
          <mxGeometry x="1340.12" y="280" width="20" height="20" as="geometry" />
        </mxCell>
        <mxCell id="SF-a8rdMqauQVfmWhSf8-1657" value="Đăng nhập vào hệ thống POS" style="html=1;whiteSpace=wrap;rounded=1;dropTarget=0;" vertex="1" parent="EHnlT2uJUEPuzApBhRH9-1">
          <mxGeometry x="682" y="380" width="108.75" height="70" as="geometry" />
        </mxCell>
        <mxCell id="SF-a8rdMqauQVfmWhSf8-1658" value="" style="html=1;shape=mxgraph.bpmn.user_task;outlineConnect=0;" vertex="1" parent="SF-a8rdMqauQVfmWhSf8-1657">
          <mxGeometry width="14" height="14" relative="1" as="geometry">
            <mxPoint x="7" y="7" as="offset" />
          </mxGeometry>
        </mxCell>
        <mxCell id="SF-a8rdMqauQVfmWhSf8-1659" value="" style="endArrow=block;endFill=1;endSize=6;html=1;exitX=1;exitY=0.5;exitDx=0;exitDy=0;entryX=0;entryY=0.5;entryDx=0;entryDy=0;" edge="1" source="SF-a8rdMqauQVfmWhSf8-1646" parent="EHnlT2uJUEPuzApBhRH9-1">
          <mxGeometry width="100" relative="1" as="geometry">
            <mxPoint x="950.12" y="190" as="sourcePoint" />
            <mxPoint x="2030.12" y="282.5" as="targetPoint" />
          </mxGeometry>
        </mxCell>
        <mxCell id="SF-a8rdMqauQVfmWhSf8-1660" value="&lt;span style=&quot;color: rgba(0 , 0 , 0 , 0) ; font-family: monospace ; font-size: 0px&quot;&gt;%3CmxGraphModel%3E%3Croot%3E%3CmxCell%20id%3D%220%22%2F%3E%3CmxCell%20id%3D%221%22%20parent%3D%220%22%2F%3E%3CmxCell%20id%3D%222%22%20value%3D%22M%C3%A1y%20qu%C3%A9t%20m%C3%A3%20v%E1%BA%A1ch%20b%E1%BB%8B%20l%E1%BB%97i%22%20style%3D%22text%3Bhtml%3D1%3BstrokeColor%3Dnone%3BfillColor%3Dnone%3Balign%3Dcenter%3BverticalAlign%3Dmiddle%3BwhiteSpace%3Dwrap%3Brounded%3D0%3B%22%20vertex%3D%221%22%20parent%3D%221%22%3E%3CmxGeometry%20x%3D%22800%22%20y%3D%22420%22%20width%3D%2290%22%20height%3D%2220%22%20as%3D%22geometry%22%2F%3E%3C%2FmxCell%3E%3CmxCell%20id%3D%223%22%20value%3D%22Nh%E1%BA%ADp%20m%C3%A3%20s%E1%BA%A3n%20ph%E1%BA%A9m%20b%E1%BA%B1ng%20tay%22%20style%3D%22shape%3Dext%3Brounded%3D1%3Bhtml%3D1%3BwhiteSpace%3Dwrap%3B%22%20vertex%3D%221%22%20parent%3D%221%22%3E%3CmxGeometry%20x%3D%22880%22%20y%3D%22430%22%20width%3D%22110%22%20height%3D%2270%22%20as%3D%22geometry%22%2F%3E%3C%2FmxCell%3E%3CmxCell%20id%3D%224%22%20value%3D%22%22%20style%3D%22shape%3Dnote%3BwhiteSpace%3Dwrap%3Bsize%3D16%3Bhtml%3D1%3BdropTarget%3D0%3B%22%20vertex%3D%221%22%20parent%3D%221%22%3E%3CmxGeometry%20x%3D%22630%22%20y%3D%22436%22%20width%3D%2240%22%20height%3D%2260%22%20as%3D%22geometry%22%2F%3E%3C%2FmxCell%3E%3CmxCell%20id%3D%225%22%20value%3D%22Barcode%2C%20SKU%2C%20s%E1%BB%91%20l%C6%B0%E1%BB%A3ng%2C%20gi%C3%A1%26amp%3Bnbsp%3B%22%20style%3D%22text%3Bhtml%3D1%3BstrokeColor%3Dnone%3BfillColor%3Dnone%3Balign%3Dcenter%3BverticalAlign%3Dmiddle%3BwhiteSpace%3Dwrap%3Brounded%3D0%3B%22%20vertex%3D%221%22%20parent%3D%221%22%3E%3CmxGeometry%20x%3D%22605%22%20y%3D%22510%22%20width%3D%2290%22%20height%3D%2220%22%20as%3D%22geometry%22%2F%3E%3C%2FmxCell%3E%3CmxCell%20id%3D%226%22%20value%3D%22B%C3%A1o%20l%E1%BB%97i%20cho%20b%C3%AAn%20ph%C3%B2ng%20ban%20li%C3%AAn%20quan%22%20style%3D%22shape%3Dext%3Brounded%3D1%3Bhtml%3D1%3BwhiteSpace%3Dwrap%3B%22%20vertex%3D%221%22%20parent%3D%221%22%3E%3CmxGeometry%20x%3D%22725%22%20y%3D%22530%22%20width%3D%22140%22%20height%3D%2290%22%20as%3D%22geometry%22%2F%3E%3C%2FmxCell%3E%3CmxCell%20id%3D%227%22%20value%3D%22%22%20style%3D%22shape%3Dmxgraph.bpmn.manual_task%3Bhtml%3D1%3BoutlineConnect%3D0%3B%22%20vertex%3D%221%22%20parent%3D%221%22%3E%3CmxGeometry%20x%3D%22890%22%20y%3D%22436%22%20width%3D%2214%22%20height%3D%2214%22%20as%3D%22geometry%22%2F%3E%3C%2FmxCell%3E%3CmxCell%20id%3D%228%22%20value%3D%22%22%20style%3D%22shape%3Dmessage%3BwhiteSpace%3Dwrap%3Bhtml%3D1%3BoutlineConnect%3D0%3BfillColor%3D%23000000%3BstrokeColor%3D%23ffffff%3BstrokeWidth%3D2%3B%22%20vertex%3D%221%22%20parent%3D%221%22%3E%3CmxGeometry%20x%3D%22730%22%20y%3D%22540%22%20width%3D%2230%22%20height%3D%2220%22%20as%3D%22geometry%22%2F%3E%3C%2FmxCell%3E%3CmxCell%20id%3D%229%22%20value%3D%22%22%20style%3D%22endArrow%3Dnone%3Bdashed%3D1%3Bhtml%3D1%3BexitX%3D0.5%3BexitY%3D1%3BexitDx%3D0%3BexitDy%3D0%3BexitPerimeter%3D0%3BentryX%3D0.5%3BentryY%3D1%3BentryDx%3D0%3BentryDy%3D0%3B%22%20edge%3D%221%22%20source%3D%224%22%20target%3D%223%22%20parent%3D%221%22%3E%3CmxGeometry%20width%3D%2250%22%20height%3D%2250%22%20relative%3D%221%22%20as%3D%22geometry%22%3E%3CmxPoint%20x%3D%221000%22%20y%3D%22300%22%20as%3D%22sourcePoint%22%2F%3E%3CmxPoint%20x%3D%22600%22%20y%3D%22450%22%20as%3D%22targetPoint%22%2F%3E%3CArray%20as%3D%22points%22%3E%3CmxPoint%20x%3D%22650%22%20y%3D%22680%22%2F%3E%3CmxPoint%20x%3D%22935%22%20y%3D%22680%22%2F%3E%3C%2FArray%3E%3C%2FmxGeometry%3E%3C%2FmxCell%3E%3CmxCell%20id%3D%2210%22%20value%3D%22%22%20style%3D%22shape%3Dmxgraph.bpmn.shape%3Bhtml%3D1%3BverticalLabelPosition%3Dbottom%3BlabelBackgroundColor%3D%23ffffff%3BverticalAlign%3Dtop%3Balign%3Dcenter%3Bperimeter%3DrhombusPerimeter%3Bbackground%3Dgateway%3BoutlineConnect%3D0%3Boutline%3Dend%3Bsymbol%3Dgeneral%3B%22%20vertex%3D%221%22%20parent%3D%221%22%3E%3CmxGeometry%20x%3D%22770%22%20y%3D%22450%22%20width%3D%2250%22%20height%3D%2250%22%20as%3D%22geometry%22%2F%3E%3C%2FmxCell%3E%3CmxCell%20id%3D%2211%22%20value%3D%22%22%20style%3D%22shape%3Dmxgraph.bpmn.shape%3Bhtml%3D1%3BverticalLabelPosition%3Dbottom%3BlabelBackgroundColor%3D%23ffffff%3BverticalAlign%3Dtop%3Balign%3Dcenter%3Bperimeter%3DellipsePerimeter%3BoutlineConnect%3D0%3Boutline%3Dstandard%3Bsymbol%3Dgeneral%3B%22%20vertex%3D%221%22%20parent%3D%221%22%3E%3CmxGeometry%20x%3D%22630%22%20y%3D%22345%22%20width%3D%2240%22%20height%3D%2240%22%20as%3D%22geometry%22%2F%3E%3C%2FmxCell%3E%3CmxCell%20id%3D%2212%22%20value%3D%22Nh%E1%BA%ADp%20th%C3%B4ng%20tin%20c%C3%A1c%20s%E1%BA%A3n%20ph%E1%BA%A9m%20v%C3%A0o%20%C4%91%C6%A1n%20h%C3%A0ng%20(d%C3%B9ng%20m%C3%A1y%20qu%C3%A9t%20m%C3%A3%20v%E1%BA%A1ch)%22%20style%3D%22shape%3Dext%3Brounded%3D1%3Bhtml%3D1%3BwhiteSpace%3Dwrap%3B%22%20vertex%3D%221%22%20parent%3D%221%22%3E%3CmxGeometry%20x%3D%22710%22%20y%3D%22320%22%20width%3D%22110%22%20height%3D%2290%22%20as%3D%22geometry%22%2F%3E%3C%2FmxCell%3E%3CmxCell%20id%3D%2213%22%20value%3D%22%22%20style%3D%22shape%3Dmxgraph.bpmn.shape%3Bhtml%3D1%3BverticalLabelPosition%3Dbottom%3BlabelBackgroundColor%3D%23ffffff%3BverticalAlign%3Dtop%3Balign%3Dcenter%3Bperimeter%3DellipsePerimeter%3BoutlineConnect%3D0%3Boutline%3DboundInt%3Bsymbol%3Derror%3B%22%20vertex%3D%221%22%20parent%3D%221%22%3E%3CmxGeometry%20x%3D%22785%22%20y%3D%22400%22%20width%3D%2220%22%20height%3D%2220%22%20as%3D%22geometry%22%2F%3E%3C%2FmxCell%3E%3CmxCell%20id%3D%2214%22%20value%3D%22%22%20style%3D%22shape%3Dmxgraph.bpmn.shape%3Bhtml%3D1%3BverticalLabelPosition%3Dbottom%3BlabelBackgroundColor%3D%23ffffff%3BverticalAlign%3Dtop%3Balign%3Dcenter%3Bperimeter%3DrhombusPerimeter%3Bbackground%3Dgateway%3BoutlineConnect%3D0%3Boutline%3Dnone%3Bsymbol%3DexclusiveGw%3B%22%20vertex%3D%221%22%20parent%3D%221%22%3E%3CmxGeometry%20x%3D%221000%22%20y%3D%22340%22%20width%3D%2250%22%20height%3D%2250%22%20as%3D%22geometry%22%2F%3E%3C%2FmxCell%3E%3CmxCell%20id%3D%2215%22%20value%3D%22%22%20style%3D%22shape%3Dmxgraph.bpmn.shape%3Bhtml%3D1%3BverticalLabelPosition%3Dbottom%3BlabelBackgroundColor%3D%23ffffff%3BverticalAlign%3Dtop%3Balign%3Dcenter%3Bperimeter%3DellipsePerimeter%3BoutlineConnect%3D0%3Boutline%3Dend%3Bsymbol%3Dgeneral%3B%22%20vertex%3D%221%22%20parent%3D%221%22%3E%3CmxGeometry%20x%3D%221090%22%20y%3D%22345%22%20width%3D%2240%22%20height%3D%2240%22%20as%3D%22geometry%22%2F%3E%3C%2FmxCell%3E%3CmxCell%20id%3D%2216%22%20value%3D%22%22%20style%3D%22endArrow%3Dblock%3BendFill%3D1%3BendSize%3D6%3Bhtml%3D1%3BexitX%3D1%3BexitY%3D0.5%3BexitDx%3D0%3BexitDy%3D0%3BentryX%3D0%3BentryY%3D0.5%3BentryDx%3D0%3BentryDy%3D0%3B%22%20edge%3D%221%22%20source%3D%2211%22%20target%3D%2212%22%20parent%3D%221%22%3E%3CmxGeometry%20width%3D%22100%22%20relative%3D%221%22%20as%3D%22geometry%22%3E%3CmxPoint%20x%3D%22650%22%20y%3D%22150%22%20as%3D%22sourcePoint%22%2F%3E%3CmxPoint%20x%3D%22660%22%20y%3D%22170%22%20as%3D%22targetPoint%22%2F%3E%3C%2FmxGeometry%3E%3C%2FmxCell%3E%3CmxCell%20id%3D%2217%22%20value%3D%22%22%20style%3D%22endArrow%3Dblock%3BendFill%3D1%3BendSize%3D6%3Bhtml%3D1%3BexitX%3D1%3BexitY%3D0.5%3BexitDx%3D0%3BexitDy%3D0%3B%22%20edge%3D%221%22%20source%3D%2212%22%20parent%3D%221%22%3E%3CmxGeometry%20width%3D%22100%22%20relative%3D%221%22%20as%3D%22geometry%22%3E%3CmxPoint%20x%3D%221020%22%20y%3D%22460%22%20as%3D%22sourcePoint%22%2F%3E%3CmxPoint%20x%3D%221000%22%20y%3D%22365%22%20as%3D%22targetPoint%22%2F%3E%3C%2FmxGeometry%3E%3C%2FmxCell%3E%3CmxCell%20id%3D%2218%22%20value%3D%22%22%20style%3D%22endArrow%3Dblock%3BendFill%3D1%3BendSize%3D6%3Bhtml%3D1%3BexitX%3D1%3BexitY%3D0.5%3BexitDx%3D0%3BexitDy%3D0%3B%22%20edge%3D%221%22%20source%3D%2214%22%20parent%3D%221%22%3E%3CmxGeometry%20width%3D%22100%22%20relative%3D%221%22%20as%3D%22geometry%22%3E%3CmxPoint%20x%3D%22860%22%20y%3D%22560%22%20as%3D%22sourcePoint%22%2F%3E%3CmxPoint%20x%3D%221090%22%20y%3D%22365%22%20as%3D%22targetPoint%22%2F%3E%3C%2FmxGeometry%3E%3C%2FmxCell%3E%3CmxCell%20id%3D%2219%22%20value%3D%22%22%20style%3D%22endArrow%3Dblock%3BendFill%3D1%3BendSize%3D6%3Bhtml%3D1%3BentryX%3D0.5%3BentryY%3D1%3BentryDx%3D0%3BentryDy%3D0%3BexitX%3D1%3BexitY%3D0.643%3BexitDx%3D0%3BexitDy%3D0%3BexitPerimeter%3D0%3B%22%20edge%3D%221%22%20source%3D%223%22%20target%3D%2214%22%20parent%3D%221%22%3E%3CmxGeometry%20width%3D%22100%22%20relative%3D%221%22%20as%3D%22geometry%22%3E%3CmxPoint%20x%3D%221020%22%20y%3D%22490%22%20as%3D%22sourcePoint%22%2F%3E%3CmxPoint%20x%3D%221130%22%20y%3D%22530%22%20as%3D%22targetPoint%22%2F%3E%3CArray%20as%3D%22points%22%3E%3CmxPoint%20x%3D%221025%22%20y%3D%22475%22%2F%3E%3C%2FArray%3E%3C%2FmxGeometry%3E%3C%2FmxCell%3E%3CmxCell%20id%3D%2220%22%20value%3D%22%22%20style%3D%22endArrow%3Dblock%3BendFill%3D1%3BendSize%3D6%3Bhtml%3D1%3BexitX%3D0.5%3BexitY%3D1%3BexitDx%3D0%3BexitDy%3D0%3BentryX%3D0.5%3BentryY%3D0%3BentryDx%3D0%3BentryDy%3D0%3B%22%20edge%3D%221%22%20source%3D%2213%22%20parent%3D%221%22%3E%3CmxGeometry%20width%3D%22100%22%20relative%3D%221%22%20as%3D%22geometry%22%3E%3CmxPoint%20x%3D%221010%22%20y%3D%22460%22%20as%3D%22sourcePoint%22%2F%3E%3CmxPoint%20x%3D%22795%22%20y%3D%22450%22%20as%3D%22targetPoint%22%2F%3E%3C%2FmxGeometry%3E%3C%2FmxCell%3E%3CmxCell%20id%3D%2221%22%20value%3D%22%22%20style%3D%22endArrow%3Dblock%3BendFill%3D1%3BendSize%3D6%3Bhtml%3D1%3B%22%20edge%3D%221%22%20parent%3D%221%22%3E%3CmxGeometry%20width%3D%22100%22%20relative%3D%221%22%20as%3D%22geometry%22%3E%3CmxPoint%20x%3D%22819.7093023255813%22%20y%3D%22474.7093023255816%22%20as%3D%22sourcePoint%22%2F%3E%3CmxPoint%20x%3D%22880%22%20y%3D%22474%22%20as%3D%22targetPoint%22%2F%3E%3C%2FmxGeometry%3E%3C%2FmxCell%3E%3CmxCell%20id%3D%2222%22%20value%3D%22%22%20style%3D%22endArrow%3Dblock%3BendFill%3D1%3BendSize%3D6%3Bhtml%3D1%3BexitX%3D0.5%3BexitY%3D1%3BexitDx%3D0%3BexitDy%3D0%3B%22%20edge%3D%221%22%20parent%3D%221%22%3E%3CmxGeometry%20width%3D%22100%22%20relative%3D%221%22%20as%3D%22geometry%22%3E%3CmxPoint%20x%3D%22795%22%20y%3D%22500%22%20as%3D%22sourcePoint%22%2F%3E%3CmxPoint%20x%3D%22795%22%20y%3D%22530%22%20as%3D%22targetPoint%22%2F%3E%3C%2FmxGeometry%3E%3C%2FmxCell%3E%3CmxCell%20id%3D%2223%22%20value%3D%22%22%20style%3D%22shape%3Dmxgraph.bpmn.user_task%3Bhtml%3D1%3BoutlineConnect%3D0%3B%22%20vertex%3D%221%22%20parent%3D%221%22%3E%3CmxGeometry%20x%3D%22720%22%20y%3D%22320%22%20width%3D%2214%22%20height%3D%2214%22%20as%3D%22geometry%22%2F%3E%3C%2FmxCell%3E%3CmxCell%20id%3D%2224%22%20value%3D%22%22%20style%3D%22endArrow%3Dnone%3Bdashed%3D1%3Bhtml%3D1%3BentryX%3D0.25%3BentryY%3D1%3BentryDx%3D0%3BentryDy%3D0%3B%22%20edge%3D%221%22%20target%3D%2212%22%20parent%3D%221%22%3E%3CmxGeometry%20width%3D%2250%22%20height%3D%2250%22%20relative%3D%221%22%20as%3D%22geometry%22%3E%3CmxPoint%20x%3D%22670%22%20y%3D%22468%22%20as%3D%22sourcePoint%22%2F%3E%3CmxPoint%20x%3D%22738%22%20y%3D%22440%22%20as%3D%22targetPoint%22%2F%3E%3CArray%20as%3D%22points%22%3E%3CmxPoint%20x%3D%22738%22%20y%3D%22468%22%2F%3E%3C%2FArray%3E%3C%2FmxGeometry%3E%3C%2FmxCell%3E%3CmxCell%20id%3D%2225%22%20value%3D%22%22%20style%3D%22endArrow%3Dnone%3Bhtml%3D1%3B%22%20edge%3D%221%22%20parent%3D%221%22%3E%3CmxGeometry%20width%3D%2250%22%20height%3D%2250%22%20relative%3D%221%22%20as%3D%22geometry%22%3E%3CmxPoint%20x%3D%22830%22%20y%3D%22480%22%20as%3D%22sourcePoint%22%2F%3E%3CmxPoint%20x%3D%22840%22%20y%3D%22470%22%20as%3D%22targetPoint%22%2F%3E%3C%2FmxGeometry%3E%3C%2FmxCell%3E%3C%2Froot%3E%3C%2FmxGraphModel%3E&lt;/span&gt;" style="rounded=1;whiteSpace=wrap;html=1;" vertex="1" parent="EHnlT2uJUEPuzApBhRH9-1">
          <mxGeometry x="830.12" y="320" width="570" height="322.5" as="geometry" />
        </mxCell>
        <mxCell id="SF-a8rdMqauQVfmWhSf8-1661" value="&lt;b&gt;&lt;i&gt;Sub-Process: Khởi tạo một đơn hàng mới&amp;nbsp;&lt;br&gt;&lt;/i&gt;&lt;/b&gt;&amp;nbsp;" style="text;html=1;strokeColor=none;fillColor=none;align=center;verticalAlign=middle;whiteSpace=wrap;rounded=0;" vertex="1" parent="EHnlT2uJUEPuzApBhRH9-1">
          <mxGeometry x="855.12" y="610" width="250" height="20" as="geometry" />
        </mxCell>
        <mxCell id="SF-a8rdMqauQVfmWhSf8-1662" value="Kiểm tra thông tin khách hàng" style="html=1;whiteSpace=wrap;rounded=1;dropTarget=0;" vertex="1" parent="EHnlT2uJUEPuzApBhRH9-1">
          <mxGeometry x="2150.12" y="245" width="120" height="80" as="geometry" />
        </mxCell>
        <mxCell id="SF-a8rdMqauQVfmWhSf8-1663" value="" style="html=1;shape=mxgraph.bpmn.user_task;outlineConnect=0;" vertex="1" parent="SF-a8rdMqauQVfmWhSf8-1662">
          <mxGeometry width="14" height="14" relative="1" as="geometry">
            <mxPoint x="7" y="7" as="offset" />
          </mxGeometry>
        </mxCell>
        <mxCell id="SF-a8rdMqauQVfmWhSf8-1664" value="" style="html=1;shape=plus;outlineConnect=0;" vertex="1" parent="SF-a8rdMqauQVfmWhSf8-1662">
          <mxGeometry x="0.5" y="1" width="14" height="14" relative="1" as="geometry">
            <mxPoint x="-7" y="-14" as="offset" />
          </mxGeometry>
        </mxCell>
        <mxCell id="SF-a8rdMqauQVfmWhSf8-1665" value="" style="shape=mxgraph.bpmn.shape;html=1;verticalLabelPosition=bottom;labelBackgroundColor=#ffffff;verticalAlign=top;align=center;perimeter=rhombusPerimeter;background=gateway;outlineConnect=0;outline=none;symbol=parallelGw;" vertex="1" parent="EHnlT2uJUEPuzApBhRH9-1">
          <mxGeometry x="2030.12" y="257.5" width="50" height="50" as="geometry" />
        </mxCell>
        <mxCell id="SF-a8rdMqauQVfmWhSf8-1666" value="Yêu cầu thanh toán" style="shape=ext;rounded=1;html=1;whiteSpace=wrap;" vertex="1" parent="EHnlT2uJUEPuzApBhRH9-1">
          <mxGeometry x="2150.12" y="380" width="120" height="80" as="geometry" />
        </mxCell>
        <mxCell id="SF-a8rdMqauQVfmWhSf8-1667" value="" style="endArrow=block;endFill=1;endSize=6;html=1;exitX=0.5;exitY=1;exitDx=0;exitDy=0;entryX=0;entryY=0.5;entryDx=0;entryDy=0;" edge="1" source="SF-a8rdMqauQVfmWhSf8-1665" target="SF-a8rdMqauQVfmWhSf8-1666" parent="EHnlT2uJUEPuzApBhRH9-1">
          <mxGeometry width="100" relative="1" as="geometry">
            <mxPoint x="1900.12" y="330" as="sourcePoint" />
            <mxPoint x="2005.12" y="210" as="targetPoint" />
            <Array as="points">
              <mxPoint x="2055.12" y="420" />
            </Array>
          </mxGeometry>
        </mxCell>
        <mxCell id="SF-a8rdMqauQVfmWhSf8-1668" value="" style="shape=mxgraph.bpmn.manual_task;html=1;outlineConnect=0;" vertex="1" parent="EHnlT2uJUEPuzApBhRH9-1">
          <mxGeometry x="2160.12" y="390" width="14" height="14" as="geometry" />
        </mxCell>
        <mxCell id="SF-a8rdMqauQVfmWhSf8-1669" value="Báo lỗi cho bên phòng ban liên quan" style="shape=ext;rounded=1;html=1;whiteSpace=wrap;" vertex="1" parent="EHnlT2uJUEPuzApBhRH9-1">
          <mxGeometry x="1570.12" y="352" width="140" height="90" as="geometry" />
        </mxCell>
        <mxCell id="SF-a8rdMqauQVfmWhSf8-1670" value="" style="shape=message;whiteSpace=wrap;html=1;outlineConnect=0;fillColor=#000000;strokeColor=#ffffff;strokeWidth=2;" vertex="1" parent="EHnlT2uJUEPuzApBhRH9-1">
          <mxGeometry x="1580.12" y="360" width="30" height="20" as="geometry" />
        </mxCell>
        <mxCell id="SF-a8rdMqauQVfmWhSf8-1671" value="" style="endArrow=block;endFill=1;endSize=6;html=1;exitX=0.5;exitY=1;exitDx=0;exitDy=0;entryX=0;entryY=0.5;entryDx=0;entryDy=0;" edge="1" target="SF-a8rdMqauQVfmWhSf8-1669" parent="EHnlT2uJUEPuzApBhRH9-1">
          <mxGeometry width="100" relative="1" as="geometry">
            <mxPoint x="1525.12" y="347.5" as="sourcePoint" />
            <mxPoint x="1500.12" y="150" as="targetPoint" />
            <Array as="points">
              <mxPoint x="1525.12" y="397" />
            </Array>
          </mxGeometry>
        </mxCell>
        <mxCell id="SF-a8rdMqauQVfmWhSf8-1672" value="" style="shape=note;whiteSpace=wrap;size=16;html=1;dropTarget=0;" vertex="1" parent="EHnlT2uJUEPuzApBhRH9-1">
          <mxGeometry x="985.12" y="490" width="40" height="60" as="geometry" />
        </mxCell>
        <mxCell id="SF-a8rdMqauQVfmWhSf8-1673" value="Barcode, SKU, số lượng, giá&amp;nbsp;" style="text;html=1;strokeColor=none;fillColor=none;align=center;verticalAlign=middle;whiteSpace=wrap;rounded=0;" vertex="1" parent="EHnlT2uJUEPuzApBhRH9-1">
          <mxGeometry x="960.12" y="560" width="90" height="20" as="geometry" />
        </mxCell>
        <mxCell id="SF-a8rdMqauQVfmWhSf8-1674" value="" style="endArrow=none;dashed=1;html=1;entryX=0.5;entryY=1;entryDx=0;entryDy=0;" edge="1" target="SF-a8rdMqauQVfmWhSf8-1694" parent="EHnlT2uJUEPuzApBhRH9-1">
          <mxGeometry width="50" height="50" relative="1" as="geometry">
            <mxPoint x="1025.12" y="530" as="sourcePoint" />
            <mxPoint x="1025.12" y="270" as="targetPoint" />
            <Array as="points">
              <mxPoint x="1175.12" y="530" />
            </Array>
          </mxGeometry>
        </mxCell>
        <mxCell id="SF-a8rdMqauQVfmWhSf8-1675" value="Máy quét mã vạch bị lỗi" style="text;html=1;strokeColor=none;fillColor=none;align=center;verticalAlign=middle;whiteSpace=wrap;rounded=0;" vertex="1" parent="EHnlT2uJUEPuzApBhRH9-1">
          <mxGeometry x="1487.62" y="410" width="75" height="20" as="geometry" />
        </mxCell>
        <mxCell id="SF-a8rdMqauQVfmWhSf8-1676" value="" style="shape=mxgraph.bpmn.shape;html=1;verticalLabelPosition=bottom;labelBackgroundColor=#ffffff;verticalAlign=top;align=center;perimeter=ellipsePerimeter;outlineConnect=0;outline=boundNonint;symbol=conditional;" vertex="1" parent="EHnlT2uJUEPuzApBhRH9-1">
          <mxGeometry x="1510.12" y="320" width="30" height="30" as="geometry" />
        </mxCell>
        <mxCell id="SF-a8rdMqauQVfmWhSf8-1677" value="Thông tin nhân viên (Employee ID, tên, etc)" style="text;html=1;strokeColor=none;fillColor=none;align=center;verticalAlign=middle;whiteSpace=wrap;rounded=0;" vertex="1" parent="EHnlT2uJUEPuzApBhRH9-1">
          <mxGeometry x="793.87" y="900" width="112.5" height="20" as="geometry" />
        </mxCell>
        <mxCell id="SF-a8rdMqauQVfmWhSf8-1678" value="Ghi nhận thông tin nhân viên" style="html=1;whiteSpace=wrap;rounded=1;dropTarget=0;" vertex="1" parent="EHnlT2uJUEPuzApBhRH9-1">
          <mxGeometry x="683.5600000000001" y="933" width="105.63" height="77" as="geometry" />
        </mxCell>
        <mxCell id="SF-a8rdMqauQVfmWhSf8-1679" value="" style="endArrow=block;endFill=1;endSize=6;html=1;exitX=1;exitY=0.5;exitDx=0;exitDy=0;entryX=0;entryY=0.5;entryDx=0;entryDy=0;" edge="1" source="SF-a8rdMqauQVfmWhSf8-1678" target="SF-a8rdMqauQVfmWhSf8-1680" parent="EHnlT2uJUEPuzApBhRH9-1">
          <mxGeometry width="100" relative="1" as="geometry">
            <mxPoint x="740.75" y="134.5" as="sourcePoint" />
            <mxPoint x="790.12" y="210" as="targetPoint" />
          </mxGeometry>
        </mxCell>
        <mxCell id="SF-a8rdMqauQVfmWhSf8-1680" value="" style="shape=mxgraph.bpmn.shape;html=1;verticalLabelPosition=bottom;labelBackgroundColor=#ffffff;verticalAlign=top;align=center;perimeter=ellipsePerimeter;outlineConnect=0;outline=throwing;symbol=link;" vertex="1" parent="EHnlT2uJUEPuzApBhRH9-1">
          <mxGeometry x="830.12" y="951.5" width="40" height="40" as="geometry" />
        </mxCell>
        <mxCell id="SF-a8rdMqauQVfmWhSf8-1681" value="A" style="text;html=1;align=center;verticalAlign=middle;resizable=0;points=[];autosize=1;" vertex="1" parent="EHnlT2uJUEPuzApBhRH9-1">
          <mxGeometry x="840.12" y="991.5" width="20" height="20" as="geometry" />
        </mxCell>
        <mxCell id="SF-a8rdMqauQVfmWhSf8-1682" value="Ghi nhận thông tin đơn hàng" style="html=1;whiteSpace=wrap;rounded=1;dropTarget=0;" vertex="1" parent="EHnlT2uJUEPuzApBhRH9-1">
          <mxGeometry x="1422.62" y="933" width="120" height="77" as="geometry" />
        </mxCell>
        <mxCell id="SF-a8rdMqauQVfmWhSf8-1683" value="" style="shape=note;whiteSpace=wrap;size=16;html=1;dropTarget=0;" vertex="1" parent="EHnlT2uJUEPuzApBhRH9-1">
          <mxGeometry x="830.12" y="820" width="40" height="60" as="geometry" />
        </mxCell>
        <mxCell id="SF-a8rdMqauQVfmWhSf8-1684" value="" style="shape=mxgraph.bpmn.service_task;html=1;outlineConnect=0;" vertex="1" parent="EHnlT2uJUEPuzApBhRH9-1">
          <mxGeometry x="690.12" y="943" width="14" height="14" as="geometry" />
        </mxCell>
        <mxCell id="SF-a8rdMqauQVfmWhSf8-1685" value="" style="shape=mxgraph.bpmn.service_task;html=1;outlineConnect=0;" vertex="1" parent="EHnlT2uJUEPuzApBhRH9-1">
          <mxGeometry x="1430.12" y="943" width="14" height="14" as="geometry" />
        </mxCell>
        <mxCell id="SF-a8rdMqauQVfmWhSf8-1686" value="" style="shape=note;whiteSpace=wrap;size=16;html=1;dropTarget=0;" vertex="1" parent="EHnlT2uJUEPuzApBhRH9-1">
          <mxGeometry x="1560.12" y="820" width="40" height="60" as="geometry" />
        </mxCell>
        <mxCell id="SF-a8rdMqauQVfmWhSf8-1687" value="Thông tin đơn hàng (Mã sản phẩm, tên sản phẩm, giá, etc)" style="text;html=1;strokeColor=none;fillColor=none;align=center;verticalAlign=middle;whiteSpace=wrap;rounded=0;" vertex="1" parent="EHnlT2uJUEPuzApBhRH9-1">
          <mxGeometry x="1522.62" y="900" width="115" height="20" as="geometry" />
        </mxCell>
        <mxCell id="SF-a8rdMqauQVfmWhSf8-1688" value="Yêu cầu thanh toán" style="text;html=1;align=center;verticalAlign=middle;resizable=0;points=[];autosize=1;" vertex="1" parent="EHnlT2uJUEPuzApBhRH9-1">
          <mxGeometry x="650.12" y="180" width="120" height="20" as="geometry" />
        </mxCell>
        <mxCell id="SF-a8rdMqauQVfmWhSf8-1690" value="" style="endArrow=none;dashed=1;html=1;entryX=0;entryY=0.5;entryDx=0;entryDy=0;entryPerimeter=0;" edge="1" target="SF-a8rdMqauQVfmWhSf8-1683" parent="EHnlT2uJUEPuzApBhRH9-1">
          <mxGeometry width="50" height="50" relative="1" as="geometry">
            <mxPoint x="740.12" y="850" as="sourcePoint" />
            <mxPoint x="810.12" y="440" as="targetPoint" />
          </mxGeometry>
        </mxCell>
        <mxCell id="SF-a8rdMqauQVfmWhSf8-1691" value="" style="endArrow=none;dashed=1;html=1;entryX=0;entryY=0.5;entryDx=0;entryDy=0;entryPerimeter=0;" edge="1" target="SF-a8rdMqauQVfmWhSf8-1686" parent="EHnlT2uJUEPuzApBhRH9-1">
          <mxGeometry width="50" height="50" relative="1" as="geometry">
            <mxPoint x="1480" y="850" as="sourcePoint" />
            <mxPoint x="810.12" y="440" as="targetPoint" />
          </mxGeometry>
        </mxCell>
        <mxCell id="SF-a8rdMqauQVfmWhSf8-1692" value="" style="endArrow=block;endFill=1;endSize=6;html=1;exitX=1;exitY=0.5;exitDx=0;exitDy=0;" edge="1" source="SF-a8rdMqauQVfmWhSf8-1665" parent="EHnlT2uJUEPuzApBhRH9-1">
          <mxGeometry width="100" relative="1" as="geometry">
            <mxPoint x="2150.12" y="282.5" as="sourcePoint" />
            <mxPoint x="2150.12" y="283" as="targetPoint" />
          </mxGeometry>
        </mxCell>
        <mxCell id="SF-a8rdMqauQVfmWhSf8-1693" value="Máy quét mã vạch bị lỗi" style="text;html=1;strokeColor=none;fillColor=none;align=center;verticalAlign=middle;whiteSpace=wrap;rounded=0;" vertex="1" parent="EHnlT2uJUEPuzApBhRH9-1">
          <mxGeometry x="1040.12" y="430" width="90" height="20" as="geometry" />
        </mxCell>
        <mxCell id="SF-a8rdMqauQVfmWhSf8-1694" value="Nhập mã sản phẩm bằng tay" style="shape=ext;rounded=1;html=1;whiteSpace=wrap;" vertex="1" parent="EHnlT2uJUEPuzApBhRH9-1">
          <mxGeometry x="1120.12" y="440" width="110" height="70" as="geometry" />
        </mxCell>
        <mxCell id="SF-a8rdMqauQVfmWhSf8-1695" value="" style="shape=mxgraph.bpmn.manual_task;html=1;outlineConnect=0;" vertex="1" parent="EHnlT2uJUEPuzApBhRH9-1">
          <mxGeometry x="1130.12" y="446" width="14" height="14" as="geometry" />
        </mxCell>
        <mxCell id="SF-a8rdMqauQVfmWhSf8-1696" value="" style="shape=mxgraph.bpmn.shape;html=1;verticalLabelPosition=bottom;labelBackgroundColor=#ffffff;verticalAlign=top;align=center;perimeter=ellipsePerimeter;outlineConnect=0;outline=standard;symbol=general;" vertex="1" parent="EHnlT2uJUEPuzApBhRH9-1">
          <mxGeometry x="870.12" y="355" width="40" height="40" as="geometry" />
        </mxCell>
        <mxCell id="SF-a8rdMqauQVfmWhSf8-1697" value="Nhập thông tin các sản phẩm vào đơn hàng (dùng máy quét mã vạch)" style="shape=ext;rounded=1;html=1;whiteSpace=wrap;" vertex="1" parent="EHnlT2uJUEPuzApBhRH9-1">
          <mxGeometry x="950.12" y="330" width="110" height="90" as="geometry" />
        </mxCell>
        <mxCell id="SF-a8rdMqauQVfmWhSf8-1698" value="" style="shape=mxgraph.bpmn.shape;html=1;verticalLabelPosition=bottom;labelBackgroundColor=#ffffff;verticalAlign=top;align=center;perimeter=ellipsePerimeter;outlineConnect=0;outline=boundInt;symbol=error;" vertex="1" parent="EHnlT2uJUEPuzApBhRH9-1">
          <mxGeometry x="1020.12" y="400" width="30" height="30" as="geometry" />
        </mxCell>
        <mxCell id="SF-a8rdMqauQVfmWhSf8-1699" value="" style="shape=mxgraph.bpmn.shape;html=1;verticalLabelPosition=bottom;labelBackgroundColor=#ffffff;verticalAlign=top;align=center;perimeter=rhombusPerimeter;background=gateway;outlineConnect=0;outline=none;symbol=exclusiveGw;" vertex="1" parent="EHnlT2uJUEPuzApBhRH9-1">
          <mxGeometry x="1240.12" y="350" width="50" height="50" as="geometry" />
        </mxCell>
        <mxCell id="SF-a8rdMqauQVfmWhSf8-1700" value="" style="shape=mxgraph.bpmn.shape;html=1;verticalLabelPosition=bottom;labelBackgroundColor=#ffffff;verticalAlign=top;align=center;perimeter=ellipsePerimeter;outlineConnect=0;outline=end;symbol=general;" vertex="1" parent="EHnlT2uJUEPuzApBhRH9-1">
          <mxGeometry x="1330.12" y="355" width="40" height="40" as="geometry" />
        </mxCell>
        <mxCell id="SF-a8rdMqauQVfmWhSf8-1701" value="" style="endArrow=block;endFill=1;endSize=6;html=1;exitX=1;exitY=0.5;exitDx=0;exitDy=0;entryX=0;entryY=0.5;entryDx=0;entryDy=0;" edge="1" source="SF-a8rdMqauQVfmWhSf8-1696" target="SF-a8rdMqauQVfmWhSf8-1697" parent="EHnlT2uJUEPuzApBhRH9-1">
          <mxGeometry width="100" relative="1" as="geometry">
            <mxPoint x="890.12" y="160" as="sourcePoint" />
            <mxPoint x="900.12" y="180" as="targetPoint" />
          </mxGeometry>
        </mxCell>
        <mxCell id="SF-a8rdMqauQVfmWhSf8-1702" value="" style="endArrow=block;endFill=1;endSize=6;html=1;exitX=1;exitY=0.5;exitDx=0;exitDy=0;" edge="1" source="SF-a8rdMqauQVfmWhSf8-1697" parent="EHnlT2uJUEPuzApBhRH9-1">
          <mxGeometry width="100" relative="1" as="geometry">
            <mxPoint x="1260.12" y="470" as="sourcePoint" />
            <mxPoint x="1240.12" y="375" as="targetPoint" />
          </mxGeometry>
        </mxCell>
        <mxCell id="SF-a8rdMqauQVfmWhSf8-1703" value="" style="endArrow=block;endFill=1;endSize=6;html=1;exitX=1;exitY=0.5;exitDx=0;exitDy=0;" edge="1" source="SF-a8rdMqauQVfmWhSf8-1699" parent="EHnlT2uJUEPuzApBhRH9-1">
          <mxGeometry width="100" relative="1" as="geometry">
            <mxPoint x="1100.12" y="570" as="sourcePoint" />
            <mxPoint x="1330.12" y="375" as="targetPoint" />
          </mxGeometry>
        </mxCell>
        <mxCell id="SF-a8rdMqauQVfmWhSf8-1704" value="" style="endArrow=block;endFill=1;endSize=6;html=1;entryX=0.5;entryY=1;entryDx=0;entryDy=0;exitX=1;exitY=0.5;exitDx=0;exitDy=0;" edge="1" source="SF-a8rdMqauQVfmWhSf8-1694" target="SF-a8rdMqauQVfmWhSf8-1699" parent="EHnlT2uJUEPuzApBhRH9-1">
          <mxGeometry width="100" relative="1" as="geometry">
            <mxPoint x="1260.12" y="500" as="sourcePoint" />
            <mxPoint x="1370.12" y="540" as="targetPoint" />
            <Array as="points">
              <mxPoint x="1265.12" y="475" />
            </Array>
          </mxGeometry>
        </mxCell>
        <mxCell id="SF-a8rdMqauQVfmWhSf8-1705" value="" style="endArrow=block;endFill=1;endSize=6;html=1;exitX=0.5;exitY=1;exitDx=0;exitDy=0;entryX=0;entryY=0.5;entryDx=0;entryDy=0;" edge="1" source="SF-a8rdMqauQVfmWhSf8-1698" target="SF-a8rdMqauQVfmWhSf8-1694" parent="EHnlT2uJUEPuzApBhRH9-1">
          <mxGeometry width="100" relative="1" as="geometry">
            <mxPoint x="1250.12" y="470" as="sourcePoint" />
            <mxPoint x="1035.12" y="460" as="targetPoint" />
            <Array as="points">
              <mxPoint x="1035.12" y="475" />
            </Array>
          </mxGeometry>
        </mxCell>
        <mxCell id="SF-a8rdMqauQVfmWhSf8-1706" value="" style="shape=mxgraph.bpmn.user_task;html=1;outlineConnect=0;" vertex="1" parent="EHnlT2uJUEPuzApBhRH9-1">
          <mxGeometry x="960.12" y="330" width="14" height="14" as="geometry" />
        </mxCell>
        <mxCell id="SF-a8rdMqauQVfmWhSf8-1707" value="" style="endArrow=none;dashed=1;html=1;entryX=0.5;entryY=1;entryDx=0;entryDy=0;exitX=0.5;exitY=0;exitDx=0;exitDy=0;exitPerimeter=0;" edge="1" source="SF-a8rdMqauQVfmWhSf8-1672" target="SF-a8rdMqauQVfmWhSf8-1697" parent="EHnlT2uJUEPuzApBhRH9-1">
          <mxGeometry width="50" height="50" relative="1" as="geometry">
            <mxPoint x="978.12" y="490" as="sourcePoint" />
            <mxPoint x="1240.12" y="440" as="targetPoint" />
          </mxGeometry>
        </mxCell>
        <mxCell id="SF-a8rdMqauQVfmWhSf8-1708" value="" style="shape=parallelMarker;html=1;outlineConnect=0;" vertex="1" parent="EHnlT2uJUEPuzApBhRH9-1">
          <mxGeometry x="1168.12" y="496" width="14" height="14" as="geometry" />
        </mxCell>
        <mxCell id="SF-a8rdMqauQVfmWhSf8-1709" value="" style="shape=parallelMarker;html=1;outlineConnect=0;" vertex="1" parent="EHnlT2uJUEPuzApBhRH9-1">
          <mxGeometry x="998.12" y="406" width="14" height="14" as="geometry" />
        </mxCell>
        <mxCell id="SF-a8rdMqauQVfmWhSf8-1711" value="" style="startArrow=oval;startFill=0;startSize=7;endArrow=block;endFill=0;endSize=10;dashed=1;html=1;exitX=0.5;exitY=1;exitDx=0;exitDy=0;entryX=0.5;entryY=0;entryDx=0;entryDy=0;" edge="1" parent="EHnlT2uJUEPuzApBhRH9-1" source="SF-a8rdMqauQVfmWhSf8-4" target="SF-a8rdMqauQVfmWhSf8-1642">
          <mxGeometry relative="1" as="geometry">
            <mxPoint x="640" y="150" as="sourcePoint" />
            <mxPoint x="850" y="330" as="targetPoint" />
          </mxGeometry>
        </mxCell>
        <mxCell id="SF-a8rdMqauQVfmWhSf8-1712" value="" style="shape=message;html=1;outlineConnect=0;" vertex="1" parent="SF-a8rdMqauQVfmWhSf8-1711">
          <mxGeometry width="20" height="14" relative="1" as="geometry">
            <mxPoint x="-10" y="-7" as="offset" />
          </mxGeometry>
        </mxCell>
      </root>
    </mxGraphModel>
  </diagram>
</mxfile>
